<?xml version="1.0" encoding="utf-8"?>
<!DOCTYPE svg PUBLIC "-//W3C//DTD SVG 1.0//EN" "http://www.w3.org/TR/2001/REC-SVG-20010904/DTD/svg10.dtd">
<svg version="1.0" xmlns="http://www.w3.org/2000/svg" width="60px" height="60px" viewBox="0 0 60 60" preserveAspectRatio="xMidYMid meet">
 <g fill="#02054e">
  <path d="M1.03 54.01 c-0.43 -0.09 -0.71 -0.32 -0.88 -0.70 -0.15 -0.38 -0.11 -0.86 0.18 -1.97 1.09 -4.14 5.60 -22.10 7.28 -28.98 0.35 -1.45 1.12 -4.58 1.71 -6.94 0.58 -2.37 1.32 -5.38 1.65 -6.71 0.32 -1.32 0.63 -2.49 0.67 -2.61 0.12 -0.27 0.36 -0.52 0.60 -0.63 0.16 -0.07 1.52 -0.08 8.94 -0.09 4.82 0 8.81 0.02 8.89 0.04 0.25 0.08 0.46 0.27 0.59 0.52 0.12 0.23 0.13 0.46 0.29 4.35 0.09 2.26 0.22 5.27 0.28 6.71 0.06 1.44 0.16 3.64 0.21 4.89 0.05 1.26 0.11 2.51 0.13 2.78 l0.04 0.49 0.30 -0.69 c0.17 -0.39 0.93 -2.07 1.68 -3.74 0.76 -1.68 2.02 -4.48 2.81 -6.24 0.79 -1.76 1.75 -3.87 2.12 -4.69 0.38 -0.82 0.88 -1.93 1.13 -2.46 0.65 -1.44 0.65 -1.44 0.90 -1.66 0.12 -0.11 0.32 -0.22 0.42 -0.24 0.11 -0.02 4.18 -0.02 9.05 -0.02 8.84 0.02 8.86 0.02 9.02 0.14 0.52 0.39 0.54 0.69 0.17 3.16 -0.97 6.60 -1.83 12.61 -3.55 24.84 -0.26 1.84 -0.64 4.54 -0.84 6.01 -0.21 1.46 -0.42 2.98 -0.47 3.37 -0.19 1.47 -0.39 2.91 -0.56 4.07 -0.09 0.66 -0.30 2.21 -0.47 3.46 -0.16 1.24 -0.32 2.40 -0.35 2.58 -0.08 0.40 -0.29 0.73 -0.59 0.88 -0.23 0.12 -0.32 0.12 -7 0.12 -4.64 0 -6.82 -0.02 -6.93 -0.06 -0.20 -0.08 -0.47 -0.32 -0.58 -0.53 -0.11 -0.21 -0.11 -0.93 0.01 -1.61 0.73 -4.45 1.11 -6.76 1.55 -9.54 0.30 -1.83 0.68 -4.18 0.85 -5.21 0.17 -1.03 0.30 -1.88 0.30 -1.89 -0.02 -0.02 -1.54 3.28 -3.09 6.72 -0.74 1.63 -1.56 3.42 -1.82 3.98 -0.83 1.81 -1.69 3.69 -2.37 5.20 -0.36 0.81 -0.71 1.55 -0.78 1.65 -0.07 0.09 -0.26 0.24 -0.43 0.32 l-0.30 0.15 -5.51 0 c-3.86 0 -5.58 -0.02 -5.75 -0.06 -0.35 -0.10 -0.56 -0.28 -0.70 -0.60 -0.12 -0.26 -0.14 -0.46 -0.21 -1.71 -0.04 -0.77 -0.16 -3.15 -0.27 -5.27 -0.11 -2.13 -0.23 -4.41 -0.26 -5.07 -0.04 -0.66 -0.10 -1.88 -0.15 -2.70 -0.05 -0.82 -0.09 -1.68 -0.09 -1.90 -0.01 -0.39 -0.03 -0.30 -0.38 1.26 -0.21 0.92 -0.46 2.09 -0.57 2.61 -0.12 0.52 -0.34 1.55 -0.50 2.29 -0.16 0.74 -0.48 2.19 -0.70 3.22 -0.22 1.03 -0.56 2.55 -0.73 3.37 -0.18 0.82 -0.35 1.62 -0.38 1.76 -0.03 0.15 -0.14 0.67 -0.25 1.17 -0.11 0.50 -0.25 1.11 -0.30 1.37 -0.08 0.38 -0.13 0.50 -0.33 0.71 -0.13 0.14 -0.30 0.28 -0.39 0.32 -0.18 0.07 -12.94 0.12 -13.28 0.05z m12.61 -3.94 c0.23 -1.06 0.60 -2.71 0.80 -3.66 0.21 -0.95 0.82 -3.70 1.35 -6.12 3.34 -15.08 3.60 -16.28 3.60 -16.38 0 -0.17 0.19 -0.29 0.47 -0.29 l0.28 0 0.03 0.25 c0.02 0.13 0.05 0.70 0.06 1.24 0.02 0.55 0.08 1.93 0.15 3.08 0.54 9.98 0.76 13.99 1 18.57 0.09 1.92 0.19 3.70 0.21 3.97 l0.04 0.48 4.69 0 4.68 0 0.30 -0.63 c0.16 -0.35 0.50 -1.08 0.75 -1.63 0.25 -0.54 0.77 -1.67 1.14 -2.49 0.38 -0.82 1.17 -2.55 1.76 -3.84 1.32 -2.90 2.29 -4.99 2.96 -6.45 3.17 -6.86 5.22 -11.35 5.57 -12.21 l0.20 -0.48 0.40 0 c0.40 0 0.40 0 0.40 0.16 0 0.09 -0.03 0.25 -0.06 0.36 -0.06 0.19 -0.57 3.23 -1.26 7.50 -0.18 1.08 -0.45 2.77 -0.61 3.75 -0.16 0.98 -0.45 2.77 -0.64 3.96 -0.19 1.20 -0.72 4.44 -1.17 7.21 -0.45 2.77 -0.84 5.16 -0.86 5.32 l-0.04 0.28 5.66 0 5.66 0 0.03 -0.13 c0.03 -0.13 0.24 -1.64 1.09 -7.84 1.15 -8.38 5.06 -36 5.19 -36.63 l0.04 -0.17 -7.79 0 -7.79 0 -0.21 0.46 c-0.12 0.25 -0.64 1.39 -1.16 2.53 -0.52 1.14 -1.18 2.60 -1.46 3.22 -0.28 0.63 -0.97 2.14 -1.52 3.37 -0.56 1.22 -1.19 2.63 -1.41 3.11 -0.35 0.76 -2.49 5.52 -3.79 8.41 -0.42 0.91 -1.29 2.89 -1.72 3.88 -0.20 0.45 -0.20 0.45 -0.42 0.45 -0.12 0 -0.22 -0.02 -0.22 -0.06 0 -0.03 -0.05 -1.21 -0.12 -2.62 -0.06 -1.41 -0.19 -4.37 -0.29 -6.58 -0.10 -2.21 -0.22 -4.88 -0.26 -5.95 -0.19 -4.10 -0.44 -9.91 -0.44 -10.07 l0 -0.16 -7.75 0.01 -7.75 0.02 -1.27 5.10 c-0.70 2.81 -2.02 8.12 -2.92 11.81 -2.31 9.36 -5.18 20.83 -6.48 25.84 -0.27 1.05 -0.49 1.92 -0.49 1.95 0 0.03 2.47 0.04 5.49 0.04 l5.49 -0.02 0.43 -1.93z"/>
 </g>
 <g fill="#151b65">
  <path d="M0 30 l0 -30 30 0 30 0 0 30 0 30 -30 0 -30 0 0 -30z m14.13 23.78 c0.09 -0.04 0.26 -0.18 0.39 -0.32 0.19 -0.21 0.25 -0.33 0.33 -0.71 0.05 -0.26 0.19 -0.87 0.30 -1.37 0.11 -0.50 0.22 -1.03 0.25 -1.17 0.03 -0.15 0.19 -0.87 0.35 -1.62 0.16 -0.74 0.50 -2.31 0.76 -3.49 0.26 -1.18 0.57 -2.64 0.71 -3.25 0.13 -0.61 0.33 -1.51 0.44 -1.99 0.84 -3.84 1.22 -5.54 1.26 -5.54 0.02 0 0.06 0.39 0.08 0.87 0.02 0.47 0.08 1.56 0.12 2.41 0.05 0.86 0.11 2.08 0.15 2.72 0.04 0.64 0.15 2.91 0.26 5.04 0.11 2.13 0.23 4.50 0.26 5.27 0.06 1.25 0.09 1.44 0.21 1.71 0.15 0.33 0.35 0.50 0.70 0.60 0.16 0.05 1.85 0.06 5.57 0.06 l5.33 0 0.31 -0.15 c0.39 -0.20 0.47 -0.32 1.09 -1.72 0.58 -1.30 1.35 -3 2.33 -5.13 0.37 -0.80 1.19 -2.61 1.83 -4.01 1.11 -2.46 3.73 -8.15 3.76 -8.20 0.08 -0.11 0.02 0.36 -0.36 2.66 -0.24 1.45 -0.67 4.14 -0.97 5.98 -0.45 2.78 -0.82 5.10 -1.55 9.54 -0.11 0.66 -0.11 1.05 -0.01 1.25 0.11 0.21 0.38 0.46 0.58 0.53 0.11 0.05 2.24 0.06 6.76 0.06 6.50 0 6.59 0 6.82 -0.12 0.30 -0.15 0.51 -0.47 0.59 -0.88 0.03 -0.18 0.19 -1.34 0.35 -2.58 0.16 -1.24 0.38 -2.79 0.47 -3.46 0.16 -1.16 0.36 -2.60 0.56 -4.07 0.05 -0.39 0.26 -1.90 0.47 -3.37 0.21 -1.46 0.59 -4.17 0.84 -6.01 1.34 -9.50 2.43 -17.19 2.99 -21.04 0.94 -6.40 0.91 -6.06 0.60 -6.42 -0.31 -0.37 0.26 -0.35 -9.22 -0.35 -7.15 0 -8.71 0.01 -8.87 0.08 -0.23 0.09 -0.55 0.45 -0.67 0.73 -0.10 0.23 -0.59 1.32 -1.63 3.58 -0.38 0.82 -1.33 2.93 -2.12 4.69 -0.79 1.76 -2.04 4.54 -2.79 6.18 -0.74 1.65 -1.50 3.33 -1.68 3.75 -0.57 1.29 -0.63 1.40 -0.66 1.28 -0.02 -0.06 -0.05 -0.52 -0.06 -1.01 -0.05 -1.25 -0.20 -4.80 -0.24 -5.63 -0.02 -0.37 -0.08 -1.86 -0.15 -3.31 -0.06 -1.45 -0.13 -2.92 -0.14 -3.28 -0.02 -0.35 -0.05 -1.05 -0.06 -1.55 -0.18 -4.55 -0.18 -4.71 -0.31 -4.96 -0.12 -0.23 -0.33 -0.42 -0.57 -0.51 -0.06 -0.02 -3.98 -0.04 -8.71 -0.04 -7.24 0 -8.63 0.02 -8.79 0.09 -0.24 0.10 -0.49 0.35 -0.60 0.62 -0.05 0.12 -0.35 1.29 -0.67 2.61 -0.32 1.32 -1.07 4.34 -1.65 6.71 -0.59 2.37 -1.35 5.50 -1.71 6.94 -1.68 6.88 -6.19 24.84 -7.28 28.98 -0.29 1.13 -0.32 1.29 -0.18 1.62 0.16 0.38 0.45 0.61 0.88 0.70 0.35 0.07 12.75 0.02 12.93 -0.05z"/>
 </g>
 <g fill="#fffefe">
  <path d="M2.41 50.41 c1.66 -6.46 4.32 -17.09 6.62 -26.38 0.91 -3.69 2.23 -9 2.92 -11.81 l1.27 -5.10 7.92 -0.02 7.93 -0.01 0 0.16 c0 0.16 0.25 5.97 0.44 10.07 0.05 1.07 0.16 3.74 0.26 5.95 0.10 2.21 0.23 5.17 0.29 6.58 0.06 1.41 0.12 2.59 0.12 2.62 0 0.17 0.12 0.01 0.29 -0.39 0.43 -0.99 1.30 -2.97 1.72 -3.88 1.30 -2.89 3.45 -7.65 3.79 -8.41 0.22 -0.48 0.85 -1.88 1.41 -3.11 0.56 -1.22 1.24 -2.74 1.52 -3.37 0.28 -0.63 0.94 -2.08 1.46 -3.22 0.52 -1.14 1.04 -2.29 1.16 -2.54 l0.21 -0.45 7.99 0 8 0 -0.04 0.16 c-0.13 0.62 -4 27.88 -5.24 36.99 -0.85 6.20 -1.06 7.71 -1.09 7.84 l-0.03 0.13 -5.86 0 c-4.04 0 -5.86 -0.02 -5.86 -0.06 0 -0.07 0.54 -3.46 1.32 -8.20 0.28 -1.69 0.63 -3.89 0.80 -4.89 0.16 -1 0.44 -2.70 0.62 -3.78 0.18 -1.08 0.46 -2.85 0.64 -3.93 0.68 -4.20 1.20 -7.30 1.25 -7.48 l0.06 -0.19 -0.22 0 -0.22 0 -0.20 0.49 c-0.35 0.85 -2.40 5.34 -5.57 12.20 -0.67 1.45 -1.63 3.54 -2.96 6.45 -0.59 1.29 -1.38 3.02 -1.76 3.84 -0.38 0.82 -0.89 1.95 -1.14 2.49 -0.25 0.55 -0.59 1.28 -0.75 1.63 l-0.30 0.63 -4.86 0 -4.86 0 -0.04 -0.48 c-0.02 -0.27 -0.12 -2.06 -0.21 -3.97 -0.23 -4.58 -0.45 -8.59 -1 -18.57 -0.06 -1.14 -0.13 -2.53 -0.15 -3.08 -0.05 -1.32 -0.07 -1.49 -0.20 -1.49 -0.12 0 -0.30 0.18 -0.30 0.29 0 0.10 -0.26 1.30 -3.60 16.38 -0.53 2.42 -1.14 5.17 -1.35 6.12 -0.21 0.95 -0.57 2.60 -0.80 3.66 l-0.43 1.93 -5.72 0.02 -5.72 0.01 0.46 -1.80z"/>
 </g>
</svg>